<?xml version="1.0" encoding="UTF-8" standalone="no"?>
<!DOCTYPE svg PUBLIC "-//W3C//DTD SVG 1.1//EN" "http://www.w3.org/Graphics/SVG/1.1/DTD/svg11.dtd">
<svg width="100%" height="100%" viewBox="0 0 115 119" version="1.1" xmlns="http://www.w3.org/2000/svg" xmlns:xlink="http://www.w3.org/1999/xlink" xml:space="preserve" xmlns:serif="http://www.serif.com/" style="fill-rule:evenodd;clip-rule:evenodd;stroke-linejoin:round;stroke-miterlimit:2;">
    <g transform="matrix(0.27776,0,0,0.27776,-15.128,-13.3524)">
        <path d="M331.56,227.18C331.542,227.18 331.524,227.181 331.507,227.185C331.373,227.212 331.286,227.35 331.314,227.49C331.318,227.507 331.323,227.524 331.33,227.54C334.497,234.9 336.52,242.663 337.4,250.83C337.44,251.203 337.647,251.39 338.02,251.39C344.54,251.39 350.137,251.37 354.81,251.33C361.86,251.26 365.12,259.24 360.94,264.55C358.32,267.88 355.31,267.42 350.51,267.43C344.49,267.443 340.27,267.457 337.85,267.47C337.503,267.477 337.313,267.65 337.28,267.99C336.473,276.29 334.42,284.05 331.12,291.27C331.113,291.286 331.107,291.304 331.103,291.321C331.07,291.471 331.161,291.621 331.305,291.654C331.323,291.658 331.342,291.66 331.36,291.66L386.25,291.66C386.629,291.659 386.99,291.487 387.23,291.19C391.49,285.91 396.94,283.92 403.58,285.22C420.7,288.57 419.99,314.56 402.32,316.68C395.327,317.52 389.897,314.677 386.03,308.15C385.856,307.854 385.536,307.671 385.19,307.67L321.33,307.67C320.863,307.67 320.617,307.903 320.59,308.37C320.563,308.87 320.823,309.397 321.37,309.95C348.883,337.437 362.897,351.483 363.41,352.09C363.69,352.417 363.957,352.45 364.21,352.19C366.97,349.39 369.12,348.52 373.59,348.52C397.163,348.527 413.84,348.513 423.62,348.48L423.625,348.48C423.91,348.477 424.143,348.245 424.14,347.965L424.14,347.96C424.09,343.7 423.83,339.05 428.51,337.25C429.47,336.883 431.153,336.707 433.56,336.72C441.793,336.767 450.027,336.76 458.26,336.7C461.22,336.68 463.317,337.77 464.55,339.97C465.243,341.21 465.59,343.293 465.59,346.22L465.61,368.37C465.63,371.197 465.25,373.203 464.47,374.39C463.023,376.57 461.03,377.657 458.49,377.65C449.777,377.643 441.07,377.643 432.37,377.65C430.497,377.65 429.08,377.42 428.12,376.96C423.2,374.58 424.43,369.45 424.21,365.08C424.19,364.72 424,364.54 423.64,364.54C406.473,364.507 391.18,364.52 377.76,364.58C372.32,364.6 371.04,367.33 371.01,372.32C370.997,374.613 371.023,382.793 371.09,396.86C371.097,397.227 371.28,397.423 371.64,397.45C373.9,397.6 377.94,396.96 380.25,398.29C383.08,399.94 383.82,402.25 383.82,405.6C383.833,413.607 383.84,421.61 383.84,429.61C383.84,436.85 381.88,439.34 374.7,439.32C367.273,439.287 359.843,439.29 352.41,439.33C349.45,439.343 347.393,439.063 346.24,438.49C343.01,436.89 342.48,434.08 342.49,430.47C342.517,422.31 342.523,414.153 342.51,406C342.51,403.813 342.773,402.2 343.3,401.16C345.54,396.76 349.9,397.5 354.12,397.53L354.13,397.53C354.41,397.53 354.64,397.3 354.64,397.02L354.64,366.38C354.64,366.1 354.54,365.857 354.34,365.65L309.22,320.53C309.111,320.421 308.964,320.36 308.81,320.36C308.496,320.36 308.236,320.616 308.23,320.93C308.13,331.937 308.127,340.373 308.22,346.24C308.26,348.76 307.84,350.717 306.96,352.11C304.37,356.21 298.14,357.41 294.43,354.02C292.25,352.03 291.72,350.21 291.75,347.13C291.803,341.65 291.783,336.283 291.69,331.03C291.683,330.805 291.495,330.624 291.27,330.624C291.212,330.624 291.154,330.636 291.1,330.66C284.227,333.713 276.773,335.693 268.74,336.6C268.373,336.64 268.19,336.847 268.19,337.22L268.19,437.8C268.19,438.207 268.377,438.497 268.75,438.67C282.72,445.02 282.23,463.68 269.33,470.81C255.55,478.44 237.78,467.25 241.18,450.94C242.42,444.99 245.98,441.53 251.27,438.51C251.57,438.337 251.72,438.08 251.72,437.74L251.72,337.11C251.72,336.77 251.55,336.583 251.21,336.55C243.103,335.617 235.48,333.593 228.34,330.48C228.08,330.367 227.947,330.453 227.94,330.74C227.913,351.527 227.91,363.077 227.93,365.39C227.963,368.823 227.543,371.22 226.67,372.58C223.58,377.4 214.94,377.77 212.2,371.92C211.667,370.78 211.41,368.953 211.43,366.44C211.47,358.987 211.467,343.797 211.42,320.87C211.421,320.608 211.268,320.369 211.03,320.26C210.81,320.16 210.603,320.21 210.41,320.41C187.297,343.83 172.323,358.977 165.49,365.85C165.183,366.158 165.01,366.575 165.01,367.01L165.01,397.04C165.01,397.333 165.157,397.477 165.45,397.47C169.82,397.4 174.58,396.66 176.78,401.54C177.207,402.487 177.42,403.897 177.42,405.77C177.427,414.517 177.447,423.26 177.48,432C177.487,434.813 176.28,436.92 173.86,438.32C172.587,439.06 170.447,439.397 167.44,439.33C165.673,439.297 157.613,439.283 143.26,439.29C140.76,439.29 138.82,438.233 137.44,436.12C136.68,434.953 136.32,433.003 136.36,430.27C136.413,426.483 136.42,418.217 136.38,405.47C136.37,402.17 136.98,400.24 139.56,398.45C141.67,397 145.88,397.43 148.29,397.53C148.554,397.536 148.775,397.328 148.78,397.07C148.853,387.29 148.83,378.547 148.71,370.84C148.643,366.66 146.42,364.567 142.04,364.56C126.093,364.52 110.853,364.53 96.32,364.59L96.305,364.59C96.053,364.598 95.851,364.808 95.859,365.054C95.859,365.06 95.86,365.065 95.86,365.07C96.28,371.56 96.05,377.63 87.84,377.63C79.053,377.637 70.273,377.65 61.5,377.67C58.993,377.677 57.033,376.637 55.62,374.55C54.833,373.39 54.447,371.43 54.46,368.67C54.48,365.183 54.483,357.757 54.47,346.39C54.47,343.437 54.77,341.39 55.37,340.25C57.02,337.13 59.97,336.71 63.54,336.73C70.833,336.777 78.127,336.777 85.42,336.73C88.647,336.71 90.83,336.963 91.97,337.49C96.29,339.47 96.12,343.92 95.98,348.05L95.98,348.061C95.975,348.297 96.169,348.495 96.411,348.5L96.42,348.5C108.793,348.52 125.273,348.527 145.86,348.52C150.09,348.52 152.89,349.26 155.44,352.39C155.446,352.397 155.452,352.405 155.458,352.412C155.648,352.625 155.982,352.642 156.2,352.449C156.207,352.443 156.213,352.436 156.22,352.43C174.753,333.73 189.02,319.257 199.02,309.01C199.433,308.583 199.417,308.203 198.97,307.87C198.795,307.74 198.577,307.67 198.35,307.67L134.56,307.67C134.187,307.67 133.917,307.837 133.75,308.17C128.79,317.94 115.73,319.76 108.28,311.97C100.61,303.93 103.53,288.78 114.89,285.57C121.95,283.577 127.847,285.463 132.58,291.23C132.813,291.517 133.117,291.66 133.49,291.66L188.27,291.66C188.79,291.66 188.943,291.423 188.73,290.95C185.397,283.697 183.337,276.03 182.55,267.95C182.519,267.661 182.276,267.439 181.99,267.44C173.637,267.433 168.53,267.453 166.67,267.5C163.963,267.573 161.987,267.147 160.74,266.22C156.2,262.86 155.82,255.31 160.97,252.33C162.07,251.697 163.983,251.377 166.71,251.37C171.85,251.357 176.963,251.367 182.05,251.4C182.27,251.406 182.459,251.234 182.48,251.01C183.307,242.917 185.337,235.123 188.57,227.63C188.588,227.589 188.597,227.545 188.597,227.5C188.597,227.32 188.45,227.172 188.27,227.17L133.79,227.17C133.47,227.17 133.207,227.29 133,227.53C129.02,232.01 124.35,234.93 118.55,234.32C110.19,233.44 103.9,226.8 103.97,218.3C104.1,201.72 125.97,196.17 133.69,210.8C133.857,211.114 134.185,211.311 134.54,211.31L199.352,211.31C199.522,211.31 199.662,211.17 199.662,211C199.662,210.917 199.629,210.838 199.57,210.78L156.59,167.5C156.577,167.487 156.564,167.474 156.55,167.461C156.05,166.984 155.392,166.85 155.093,167.164C155.085,167.173 155.077,167.181 155.07,167.19C152.65,170.16 149.71,170.88 145.68,170.86C125.287,170.807 108.973,170.82 96.74,170.9C96.24,170.9 96,171.15 96.02,171.65C96.2,175.64 96.38,180.43 92.35,182.58C91.263,183.16 89.303,183.443 86.47,183.43C78.063,183.383 69.657,183.4 61.25,183.48C58.91,183.5 57.013,182.43 55.56,180.27C54.78,179.103 54.41,177.18 54.45,174.5C54.49,171.6 54.497,164.193 54.47,152.28C54.463,149.22 54.763,147.083 55.37,145.87C56.53,143.543 58.657,142.383 61.75,142.39C70.343,142.41 78.937,142.42 87.53,142.42C95.81,142.41 96,147.43 95.96,154.3L95.96,154.31C95.96,154.634 96.226,154.9 96.55,154.9C106.263,154.907 121.373,154.91 141.88,154.91C146.373,154.91 148.653,152.593 148.72,147.96C148.84,138.907 148.837,130.09 148.71,121.51C148.705,121.245 148.485,121.03 148.22,121.03L148.2,121.03C141.07,121.32 136.3,121.06 136.36,112.52C136.407,104.607 136.413,96.693 136.38,88.78C136.373,85.973 136.68,84.003 137.3,82.87C138.96,79.84 141.71,79.49 145.2,79.51C152.56,79.55 159.917,79.55 167.27,79.51C170.37,79.49 172.49,79.753 173.63,80.3C176.96,81.9 177.45,84.96 177.44,88.65C177.433,98.683 177.447,106.767 177.48,112.9C177.52,120.62 172.23,121.42 165.7,121.07C165.69,121.07 165.68,121.069 165.67,121.069C165.308,121.069 165.01,121.367 165.01,121.729L165.01,152.37C165.01,152.963 165.22,153.47 165.64,153.89L210.87,199.37C210.9,199.401 210.933,199.42 210.969,199.425C211.148,199.45 211.344,199.131 211.403,198.719C211.414,198.638 211.42,198.558 211.42,198.48C211.433,193.493 211.43,185.25 211.41,173.75C211.41,171.703 212.287,169.94 214.04,168.46C218.23,164.93 224.54,165.94 227.15,170.96C227.67,171.96 227.93,173.697 227.93,176.17C227.93,181.597 227.913,185.517 227.88,187.93L227.88,187.934C227.88,188.197 228.097,188.414 228.36,188.414C228.429,188.414 228.497,188.399 228.56,188.37C235.74,185.05 243.287,182.943 251.2,182.05C251.49,182.019 251.712,181.771 251.71,181.48L251.71,83.33C251.71,82.902 251.464,82.512 251.08,82.33C238.83,76.41 236.98,60.09 248,51.85C252.073,48.79 256.867,47.54 262.38,48.1C280.69,49.95 285.55,73.99 268.61,82.36C268.33,82.5 268.19,82.727 268.19,83.04L268.19,181.48C268.19,181.78 268.34,181.947 268.64,181.98C276.5,182.86 284.01,184.93 291.17,188.19C291.198,188.203 291.226,188.212 291.256,188.219C291.486,188.269 291.718,188.116 291.77,187.88C291.776,187.851 291.78,187.82 291.78,187.79C291.787,176.45 291.78,164.357 291.76,151.51C291.76,149.743 292.64,148.12 294.4,146.64C298.4,143.28 305.33,144.13 307.55,149.19C307.983,150.163 308.197,151.933 308.19,154.5C308.17,168.833 308.16,183.167 308.16,197.5C308.16,197.94 308.22,198.31 308.34,198.61C308.43,198.825 308.642,198.965 308.875,198.965C309.026,198.965 309.172,198.906 309.28,198.8L354.31,153.77C354.515,153.565 354.63,153.284 354.63,152.99L354.63,121.71C354.63,121.257 354.403,121.033 353.95,121.04C347.46,121.19 342.52,120.88 342.52,112.98C342.527,104.793 342.54,96.613 342.56,88.44C342.58,82.5 344.52,79.54 350.58,79.53L374,79.51C377.047,79.51 379.17,79.81 380.37,80.41C382.67,81.563 383.82,83.677 383.82,86.75L383.81,113.49C383.77,121.56 377.42,121.09 371.53,121.1C371.228,121.1 370.98,121.348 370.98,121.65C370.933,131.403 370.93,139.73 370.97,146.63C370.983,149.137 371.363,150.92 372.11,151.98C373.497,153.947 375.267,154.927 377.42,154.92C392.84,154.887 408.257,154.883 423.67,154.91C424.01,154.91 424.193,154.74 424.22,154.4C424.54,150.48 423.36,146.3 427.34,143.58C428.547,142.747 430.567,142.35 433.4,142.39C438.313,142.457 445.687,142.46 455.52,142.4C460.06,142.37 463.58,142.61 465.1,146.94C465.44,147.907 465.607,149.47 465.6,151.63C465.573,156.643 465.577,164.183 465.61,174.25C465.617,176.957 465.267,178.9 464.56,180.08C462.85,182.96 460.23,183.44 456.81,183.43C448.697,183.41 440.587,183.413 432.48,183.44C430.56,183.447 429.127,183.23 428.18,182.79C423.58,180.65 424.2,175.96 424.24,171.76C424.245,171.332 423.893,170.976 423.46,170.97C406.673,170.837 390.4,170.803 374.64,170.87C370.1,170.89 367.2,170.46 364.43,167.13C364.427,167.126 364.423,167.122 364.42,167.118C364.233,166.91 363.911,166.89 363.707,167.074C363.701,167.079 363.696,167.085 363.69,167.09L320.85,209.94C320.7,210.092 320.615,210.297 320.615,210.51C320.615,210.952 320.978,211.317 321.42,211.32L385.3,211.32C385.776,211.32 386.219,211.064 386.46,210.65C392.55,199.94 406.71,199.33 413.67,209.86C419.49,218.66 414.47,231.32 403.87,233.85C397.39,235.403 391.767,233.3 387,227.54C386.803,227.311 386.518,227.18 386.22,227.18L331.56,227.18ZM321.42,259.47C321.42,225.743 293.667,197.99 259.94,197.99C226.213,197.99 198.46,225.743 198.46,259.47C198.46,293.197 226.213,320.95 259.94,320.95C293.667,320.95 321.42,293.197 321.42,259.47" style="fill:rgb(179,243,95);fill-rule:nonzero;"/>
    </g>
</svg>
